<?xml version="1.0" encoding="UTF-8" standalone="no"?>
<svg
   xmlns:dc="http://purl.org/dc/elements/1.1/"
   xmlns:cc="http://creativecommons.org/ns#"
   xmlns:rdf="http://www.w3.org/1999/02/22-rdf-syntax-ns#"
   xmlns:svg="http://www.w3.org/2000/svg"
   xmlns="http://www.w3.org/2000/svg"
   xmlns:sodipodi="http://sodipodi.sourceforge.net/DTD/sodipodi-0.dtd"
   xmlns:inkscape="http://www.inkscape.org/namespaces/inkscape"
   width="95.250076mm"
   height="156.9346mm"
   viewBox="0 0 95.250076 156.9346"
   version="1.1"
   id="svg8"
   inkscape:version="1.0 (4035a4fb49, 2020-05-01)"
   sodipodi:docname="logo_v2.svg">
  <defs
     id="defs2" />
  <sodipodi:namedview
     inkscape:snap-bbox-midpoints="true"
     inkscape:snap-bbox-edge-midpoints="true"
     inkscape:bbox-nodes="true"
     inkscape:bbox-paths="true"
     inkscape:snap-bbox="true"
     inkscape:snap-text-baseline="true"
     inkscape:snap-center="true"
     inkscape:snap-object-midpoints="true"
     inkscape:snap-midpoints="true"
     inkscape:snap-smooth-nodes="true"
     inkscape:snap-intersection-paths="true"
     inkscape:object-paths="true"
     id="base"
     pagecolor="#ffffff"
     bordercolor="#666666"
     borderopacity="1.0"
     inkscape:pageopacity="0.0"
     inkscape:pageshadow="2"
     inkscape:zoom="0.7"
     inkscape:cx="120.79572"
     inkscape:cy="412.52277"
     inkscape:document-units="mm"
     inkscape:current-layer="layer1"
     inkscape:document-rotation="0"
     showgrid="false"
     inkscape:window-width="1920"
     inkscape:window-height="1017"
     inkscape:window-x="1912"
     inkscape:window-y="-8"
     inkscape:window-maximized="1" />
  <metadata
     id="metadata5">
    <rdf:RDF>
      <cc:Work
         rdf:about="">
        <dc:format>image/svg+xml</dc:format>
        <dc:type
           rdf:resource="http://purl.org/dc/dcmitype/StillImage" />
        <dc:title></dc:title>
      </cc:Work>
    </rdf:RDF>
  </metadata>
  <g
     transform="translate(-64.255951,-70.417922)"
     inkscape:label="Vrstva 1"
     inkscape:groupmode="layer"
     id="layer1">
    <path
       transform="scale(0.26458333)"
       d="m 242.85742,266.14648 v 470.9961 h 51.42774 v -438.1836 a 622.25397,622.25397 0 0 1 -51.42774,-32.8125 z"
       style="fill:#666666;fill-rule:evenodd;stroke:none;stroke-width:0.999999"
       id="rect10" />
    <path
       d="m 64.256025,195.03564 3.401859,19.62309 2.200383,12.6938 h 2.402438 l 2.200381,-12.6938 3.401862,-19.62309 h -6.803721 z"
       inkscape:transform-center-y="6.5410595"
       style="fill:#666666;fill-rule:evenodd;stroke:none;stroke-width:0.507127"
       id="path12" />
    <rect
       y="177.50299"
       x="64.255951"
       height="19.649357"
       width="13.607142"
       id="rect16"
       style="fill:#e6e6e6;fill-rule:evenodd;stroke:none;stroke-width:0.605;stroke-linejoin:round;stroke-miterlimit:4;stroke-dasharray:none;stroke-opacity:1;paint-order:stroke fill markers"
       ry="6.6145811" />
    <rect
       ry="0.46772167"
       style="fill:#4d4d4d;fill-rule:evenodd;stroke:none;stroke-width:0.224568;stroke-linejoin:round;stroke-miterlimit:4;stroke-dasharray:none;stroke-opacity:1;paint-order:stroke fill markers"
       id="rect841"
       width="12.003526"
       height="3.0689323"
       x="65.057762"
       y="187.83423" />
    <path
       transform="scale(0.26458333)"
       d="m 320,312.85352 v 424.28906 h 51.42773 V 336.21875 A 622.25397,622.25397 0 0 1 320,312.85352 Z"
       style="fill:#666666;fill-rule:evenodd;stroke:none;stroke-width:0.999999"
       id="rect3159" />
    <path
       id="path3161"
       style="fill:#666666;fill-rule:evenodd;stroke:none;stroke-width:0.507127"
       inkscape:transform-center-y="6.5410595"
       d="m 98.273725,195.03564 -3.401859,19.62309 -2.200383,12.6938 h -2.402438 l -2.200381,-12.6938 -3.401862,-19.62309 h 6.803721 z" />
    <rect
       transform="scale(-1,1)"
       ry="6.6145811"
       style="fill:#e6e6e6;fill-rule:evenodd;stroke:none;stroke-width:0.605;stroke-linejoin:round;stroke-miterlimit:4;stroke-dasharray:none;stroke-opacity:1;paint-order:stroke fill markers"
       id="rect3163"
       width="13.607142"
       height="19.649357"
       x="-98.273796"
       y="177.50299" />
    <rect
       transform="scale(-1,1)"
       y="187.83423"
       x="-97.471985"
       height="3.0689323"
       width="12.003526"
       id="rect3165"
       style="fill:#4d4d4d;fill-rule:evenodd;stroke:none;stroke-width:0.224568;stroke-linejoin:round;stroke-miterlimit:4;stroke-dasharray:none;stroke-opacity:1;paint-order:stroke fill markers"
       ry="0.46772167" />
    <path
       transform="scale(0.26458333)"
       d="m 397.14258,345.86914 v 391.27344 h 51.42969 v -375.7168 a 622.25397,622.25397 0 0 1 -51.42969,-15.55664 z"
       style="fill:#666666;fill-rule:evenodd;stroke:none;stroke-width:0.999999"
       id="rect3169" />
    <path
       id="path3171"
       style="fill:#666666;fill-rule:evenodd;stroke:none;stroke-width:0.507127"
       inkscape:transform-center-y="6.5410595"
       d="m 105.07745,195.03564 3.40186,19.62309 2.20038,12.6938 h 2.40244 l 2.20038,-12.6938 3.40186,-19.62309 h -6.80372 z" />
    <rect
       ry="6.6145811"
       style="fill:#e6e6e6;fill-rule:evenodd;stroke:none;stroke-width:0.605;stroke-linejoin:round;stroke-miterlimit:4;stroke-dasharray:none;stroke-opacity:1;paint-order:stroke fill markers"
       id="rect3173"
       width="13.607142"
       height="19.649357"
       x="105.07738"
       y="177.50299" />
    <rect
       y="187.83423"
       x="105.87919"
       height="3.0689323"
       width="12.003526"
       id="rect3175"
       style="fill:#4d4d4d;fill-rule:evenodd;stroke:none;stroke-width:0.224568;stroke-linejoin:round;stroke-miterlimit:4;stroke-dasharray:none;stroke-opacity:1;paint-order:stroke fill markers"
       ry="0.46772167" />
    <path
       transform="scale(0.26458333)"
       d="m 474.28516,367.42969 v 369.71289 h 51.42968 V 376.05664 a 622.25397,622.25397 0 0 1 -51.42968,-8.62695 z"
       style="fill:#666666;fill-rule:evenodd;stroke:none;stroke-width:0.999999"
       id="rect3130" />
    <path
       id="path3132"
       style="fill:#666666;fill-rule:evenodd;stroke:none;stroke-width:0.507127"
       inkscape:transform-center-y="6.5410595"
       d="m 139.09516,195.03564 -3.40186,19.62309 -2.20039,12.6938 h -2.40244 l -2.20038,-12.6938 -3.40186,-19.62309 h 6.80372 z" />
    <path
       id="rect3134"
       style="fill:#e6e6e6;fill-rule:evenodd;stroke:none;stroke-width:0.605;stroke-linejoin:round;stroke-miterlimit:4;stroke-dasharray:none;stroke-opacity:1;paint-order:stroke fill markers"
       d="m 132.48065,177.50299 h -0.37798 c -3.66448,0 -6.61458,2.9501 -6.61458,6.61458 v 6.4202 c 0,3.66447 2.9501,6.61458 6.61458,6.61458 h 0.37798 c 3.66448,0 6.61458,-2.95011 6.61458,-6.61458 v -6.4202 c 0,-3.66448 -2.9501,-6.61458 -6.61458,-6.61458 z" />
    <path
       id="rect3136"
       style="fill:#4d4d4d;fill-rule:evenodd;stroke:none;stroke-width:0.224568;stroke-linejoin:round;stroke-miterlimit:4;stroke-dasharray:none;stroke-opacity:1;paint-order:stroke fill markers"
       d="m 137.8257,187.83423 h -11.06809 c -0.25911,0 -0.46772,0.2086 -0.46772,0.46772 v 2.13349 c 0,0.25912 0.20861,0.46772 0.46772,0.46772 h 11.06809 c 0.25911,0 0.46772,-0.2086 0.46772,-0.46772 v -2.13349 c 0,-0.25912 -0.20861,-0.46772 -0.46772,-0.46772 z" />
    <path
       transform="scale(0.26458333)"
       d="m 551.42773,378.72656 v 358.41602 h 51.42969 V 380.85742 a 622.25397,622.25397 0 0 1 -51.42969,-2.13086 z"
       style="fill:#666666;fill-rule:evenodd;stroke:none;stroke-width:0.999999"
       id="rect3116" />
    <path
       id="path3118"
       style="fill:#666666;fill-rule:evenodd;stroke:none;stroke-width:0.507127"
       inkscape:transform-center-y="6.5410595"
       d="m 145.89888,195.03564 3.40186,19.62309 2.20038,12.6938 h 2.40244 l 2.20038,-12.6938 3.40186,-19.62309 h -6.80372 z" />
    <path
       id="rect3120"
       style="fill:#e6e6e6;fill-rule:evenodd;stroke:none;stroke-width:0.605;stroke-linejoin:round;stroke-miterlimit:4;stroke-dasharray:none;stroke-opacity:1;paint-order:stroke fill markers"
       d="m 152.51338,177.50299 h 0.37798 c 3.66448,0 6.61459,2.9501 6.61459,6.61458 v 6.4202 c 0,3.66447 -2.95011,6.61458 -6.61459,6.61458 h -0.37798 c -3.66447,0 -6.61458,-2.95011 -6.61458,-6.61458 v -6.4202 c 0,-3.66448 2.95011,-6.61458 6.61458,-6.61458 z" />
    <path
       id="rect3122"
       style="fill:#4d4d4d;fill-rule:evenodd;stroke:none;stroke-width:0.224568;stroke-linejoin:round;stroke-miterlimit:4;stroke-dasharray:none;stroke-opacity:1;paint-order:stroke fill markers"
       d="m 147.16834,187.83423 h 11.06808 c 0.25912,0 0.46772,0.2086 0.46772,0.46772 v 2.13349 c 0,0.25912 -0.2086,0.46772 -0.46772,0.46772 h -11.06808 c -0.25912,0 -0.46772,-0.2086 -0.46772,-0.46772 v -2.13349 c 0,-0.25912 0.2086,-0.46772 0.46772,-0.46772 z" />
  </g>
</svg>
